<svg xmlns="http://www.w3.org/2000/svg" xmlns:xlink="http://www.w3.org/1999/xlink" version="1.1" x="0px" y="0px"
  viewBox="0 0 90 90" enable-background="new 0 0 90 90" xml:space="preserve" fill="antiquewhite">
  <path
    d="M65,56.998c-1.105,0-2,0.898-2,2s0.895,2,2,2s2-0.898,2-2S66.105,56.998,65,56.998z M25,56.998c-1.105,0-2,0.898-2,2  s0.895,2,2,2s2-0.898,2-2S26.105,56.998,25,56.998z M13.312,13.72c0.177,0.053,0.356,0.078,0.531,0.078  c0.796,0,1.532-0.518,1.772-1.32l0.337-1.125c0.293-0.979-0.263-2.01-1.242-2.303c-0.983-0.293-2.01,0.264-2.303,1.242l-0.337,1.125  C11.778,12.396,12.333,13.426,13.312,13.72z M4.944,23.964c0.252,0.118,0.518,0.173,0.78,0.173c0.697,0,1.364-0.396,1.678-1.07  l0.07-0.151c1.432-3.076,1.772-3.806,4.243-5.943c0.772-0.668,0.857-1.837,0.189-2.61c-0.669-0.772-1.836-0.856-2.61-0.189  c-3.069,2.655-3.643,3.887-5.176,7.18l-0.071,0.151C3.616,22.432,4.018,23.533,4.944,23.964z M32.85,52.998  c0-2.673-2.176-4.848-4.85-4.848s-4.85,2.175-4.85,4.848c0,0.981,0.306,1.753,0.91,2.291c0.767,0.685,1.701,0.688,2.012,0.688  c0.3-0.014,0.626-0.029,0.988-0.065c0.581-0.057,1.3-0.057,1.881,0c0.36,0.036,0.691,0.065,0.984,0.065  C31.729,55.977,32.85,54.835,32.85,52.998z M87.062,67.044c-0.928-0.434-2.027-0.03-2.458,0.896l-0.072,0.155  c-1.431,3.073-1.771,3.804-4.241,5.939c-0.772,0.668-0.857,1.837-0.189,2.609c0.366,0.423,0.882,0.64,1.4,0.64  c0.429,0,0.859-0.147,1.209-0.45c3.07-2.654,3.644-3.886,5.176-7.177l0.071-0.154C88.389,68.575,87.987,67.475,87.062,67.044z   M78.694,77.289c-0.977-0.293-2.01,0.261-2.304,1.239l-0.338,1.125c-0.294,0.979,0.261,2.01,1.239,2.304  c0.178,0.054,0.356,0.079,0.533,0.079c0.795,0,1.53-0.518,1.771-1.318l0.338-1.125C80.228,78.614,79.673,77.583,78.694,77.289z   M80.087,26.112c1.675-0.374,3.397-1.323,4.299-2.224c0.823-0.822,1.605-2.194,2.043-3.581c0.628-1.993,0.405-3.66-0.628-4.693  c-1.313-1.313-5.665-2.706-8.366-2.959C77.21,9.42,75.475,5.288,74.488,4.3c-0.448-0.448-1.265-0.981-2.611-0.981  c-2.018,0-4.511,1.243-5.664,2.396c-1.018,1.019-2.165,3.098-2.366,5.061C58.203,7.827,51.795,6.15,45,6.15  C22.475,6.15,4.15,24.475,4.15,47c0,22.524,18.325,40.85,40.85,40.85c22.525,0,40.85-18.325,40.85-40.85  C85.85,39.372,83.742,32.229,80.087,26.112z M38.55,83.578c-8.239-1.449-15.554-5.613-20.973-11.544  c0.177-0.649,0.273-1.331,0.273-2.036c0-0.5-0.052-0.988-0.142-1.462c4.325,7.26,12.355,12.01,22.739,13.078  C39.702,82.149,39.069,82.821,38.55,83.578z M51.449,83.578c-0.52-0.757-1.152-1.43-1.896-1.964  c9.596-0.988,17.18-5.121,21.688-11.474c0.124,0.835,0.376,1.627,0.741,2.355C66.609,78.179,59.471,82.168,51.449,83.578z M45,78.15  c-13.514,0-27.149-7.159-27.149-23.152C17.85,42.113,26.73,35.85,45,35.85S72.15,42.113,72.15,54.998  C72.15,70.991,58.514,78.15,45,78.15z M79,61.148c-1.499,0-2.896,0.43-4.09,1.162c0.615-2.286,0.939-4.73,0.939-7.312  c0-7.039-2.451-14.984-11.888-19.406c3.38-0.875,5.888-3.942,5.888-7.592c0-4.329-3.521-7.85-7.85-7.85s-7.85,3.521-7.85,7.85  c0,1.952,0.721,3.735,1.903,5.11c-3.182-0.615-6.837-0.96-11.054-0.96c-3.395,0-6.422,0.226-9.138,0.633  c0.624-1.124,0.989-2.409,0.989-3.783c0-4.329-3.521-7.85-7.85-7.85s-7.85,3.521-7.85,7.85c0,3.003,1.699,5.609,4.183,6.927  C16.472,40.408,14.15,48.136,14.15,54.998c0,3.567,0.615,6.872,1.768,9.859c-1.205-1.386-2.884-2.341-4.785-2.617  c-1.87-4.139-3.009-8.673-3.238-13.445c3.908-0.446,6.955-3.77,6.955-7.795c0-3.167-1.888-5.894-4.595-7.132  c4.512-11.898,14.964-20.89,27.72-23.342C37.452,11.574,37.15,12.75,37.15,14c0,4.329,3.521,7.85,7.85,7.85  c4.328,0,7.85-3.521,7.85-7.85c0-1.25-0.303-2.426-0.824-3.475c12.637,2.429,23.011,11.279,27.59,23.013  C76.452,34.55,74.15,37.505,74.15,41c0,4.329,3.521,7.85,7.85,7.85c0.035,0,0.068-0.007,0.104-0.007  c-0.213,4.347-1.182,8.498-2.77,12.33C79.222,61.168,79.113,61.148,79,61.148z M66.85,52.998c0-2.673-2.176-4.848-4.85-4.848  s-4.85,2.175-4.85,4.848c0,0.981,0.306,1.753,0.909,2.291c0.768,0.685,1.701,0.688,2.013,0.688h0.004  c0.292,0,0.624-0.029,0.983-0.065c0.583-0.057,1.299-0.057,1.881,0c0.359,0.036,0.691,0.065,0.984,0.065  C65.729,55.977,66.85,54.835,66.85,52.998z M57.182,60.055c-0.908-0.474-2.023-0.121-2.496,0.785  C52.9,64.263,49.461,66.148,45,66.148c-4.46,0-7.9-1.886-9.686-5.309c-0.472-0.905-1.591-1.258-2.496-0.785  c-0.906,0.473-1.257,1.59-0.785,2.496c2.419,4.638,7.145,7.297,12.966,7.297s10.548-2.659,12.967-7.297  C58.438,61.645,58.088,60.527,57.182,60.055z">
  </path>
</svg>